# xmcd
#
# Track frame offsets:
#	150
#	20552
#	42662
#	61777
#	86627
#	122272
#	148437
#	183835
#	201527
#	210342
#	234682
#	257310
#
# Disc length: 3706 seconds
#
# Revision: 0
# Processed by: cddbd v1.4PL0 Copyright (c) Steve Scherf et al.
# Submitted via: audiograbber 1.80
#
DISCID=a90e780c
DTITLE=The Blue Angels - Live Arenberg
DYEAR=1900
DGENRE=
TTITLE0=Why Don't You Try Me
TTITLE1=Red House
TTITLE2=Don't Put Your Hands On Me
TTITLE3=The Rock (Sinner Man)
TTITLE4=I Been Hoodood
TTITLE5=You Can't Judge A Book
TTITLE6=Let's Go Get Stoned
TTITLE7=So Fine
TTITLE8=I Could Love You
TTITLE9=St James Infirmary
TTITLE10=Crossroads
TTITLE11=You Don't Know What You Mean To Me
EXTD=
EXTT0=
EXTT1=
EXTT2=
EXTT3=
EXTT4=
EXTT5=
EXTT6=
EXTT7=
EXTT8=
EXTT9=
EXTT10=
EXTT11=
PLAYORDER=
